<svg width="44" height="44" viewBox="0 0 44 44" fill="none" xmlns="http://www.w3.org/2000/svg">
<rect width="44" height="44" rx="8" fill="#A492FF"/>
<path d="M20.5156 28L19.6875 25.2812H15.5234L14.6953 28H12.0859L16.1172 16.5312H19.0781L23.125 28H20.5156ZM19.1094 23.25L18.2812 20.5938C18.2292 20.4167 18.1589 20.1901 18.0703 19.9141C17.987 19.6328 17.901 19.349 17.8125 19.0625C17.7292 18.7708 17.6615 18.5182 17.6094 18.3047C17.5573 18.5182 17.4844 18.7839 17.3906 19.1016C17.3021 19.4141 17.2161 19.7109 17.1328 19.9922C17.0495 20.2734 16.9896 20.474 16.9531 20.5938L16.1328 23.25H19.1094ZM26.9531 28H24.5703V16.5781H31.1172V18.5625H26.9531V21.5078H30.8281V23.4844H26.9531V28Z" fill="white"/>
</svg>
