<svg width="44" height="44" fill="none" xmlns="http://www.w3.org/2000/svg">
  <rect width="44" height="44" rx="8" fill="#4A49CB"/>
  <path d="m20.516 28-.828-2.719h-4.165L14.695 28h-2.61l4.032-11.469h2.961L23.125 28h-2.61Zm-1.407-4.75-.828-2.656a29.527 29.527 0 0 0-.21-.68c-.084-.281-.17-.565-.259-.852a20.61 20.61 0 0 1-.203-.757c-.052.213-.125.479-.218.797a77.809 77.809 0 0 1-.438 1.492l-.82 2.656h2.976ZM26.953 28H24.57V16.578h6.547v1.985h-4.164v2.945h3.875v1.976h-3.875V28Z" fill="#fff"/>
</svg>
